<svg width="211" height="33" viewBox="0 0 211 33" fill="none" xmlns="http://www.w3.org/2000/svg">
<path d="M15.08 10.72C15.9867 10.72 16.7067 10.92 17.24 11.32C17.7733 11.6933 18.16 12.1867 18.4 12.8C18.64 13.3867 18.76 13.9733 18.76 14.56C18.76 15.6533 18.44 16.5333 17.8 17.2C17.1867 17.8667 16.3733 18.2 15.36 18.2C14.2933 18.2 13.48 17.96 12.92 17.48C12.36 16.9733 12.08 16.3067 12.08 15.48C12.08 14.6533 12.2533 13.9733 12.6 13.44C12.9733 12.9067 13.4267 12.4533 13.96 12.08C13.56 12.0267 13.1733 12.08 12.8 12.24C12.2133 12.3733 11.6933 12.68 11.24 13.16C10.7867 13.6133 10.4267 14.1467 10.16 14.76C9.92 15.3467 9.8 15.96 9.8 16.6V27.88C9.8 29.16 10.08 30.0267 10.64 30.48C11.2267 30.9333 12.1467 31.16 13.4 31.16V32C12.7867 31.9733 11.88 31.9467 10.68 31.92C9.48 31.8667 8.24 31.84 6.96 31.84C5.81333 31.84 4.65333 31.8667 3.48 31.92C2.33333 31.9467 1.48 31.9733 0.92 32V31.16C1.8 31.16 2.41333 30.96 2.76 30.56C3.13333 30.16 3.32 29.4 3.32 28.28V15.64C3.32 14.44 3.14667 13.56 2.8 13C2.45333 12.4133 1.82667 12.12 0.92 12.12V11.28C1.77333 11.36 2.6 11.4 3.4 11.4C4.6 11.4 5.73333 11.36 6.8 11.28C7.89333 11.1733 8.89333 11.0267 9.8 10.84V14.12C10.12 13.4267 10.5333 12.8267 11.04 12.32C11.5733 11.8133 12.1733 11.4267 12.84 11.16C13.5333 10.8667 14.28 10.72 15.08 10.72ZM25.2253 0.839998C26.4786 0.839998 27.452 1.12 28.1453 1.68C28.8653 2.24 29.2253 3.05333 29.2253 4.12C29.2253 5.18667 28.8653 6 28.1453 6.56C27.452 7.12 26.4786 7.4 25.2253 7.4C23.972 7.4 22.9853 7.12 22.2653 6.56C21.572 6 21.2253 5.18667 21.2253 4.12C21.2253 3.05333 21.572 2.24 22.2653 1.68C22.9853 1.12 23.972 0.839998 25.2253 0.839998ZM28.7453 10.84V28.28C28.7453 29.4 28.9186 30.16 29.2653 30.56C29.6386 30.96 30.2653 31.16 31.1453 31.16V32C30.612 31.9733 29.8253 31.9467 28.7853 31.92C27.7453 31.8667 26.692 31.84 25.6253 31.84C24.5586 31.84 23.4653 31.8667 22.3453 31.92C21.252 31.9467 20.4253 31.9733 19.8653 32V31.16C20.7453 31.16 21.3586 30.96 21.7053 30.56C22.0786 30.16 22.2653 29.4 22.2653 28.28V15.64C22.2653 14.44 22.092 13.56 21.7453 13C21.3986 12.4133 20.772 12.12 19.8653 12.12V11.28C20.7186 11.36 21.5453 11.4 22.3453 11.4C23.5453 11.4 24.6786 11.36 25.7453 11.28C26.8386 11.1733 27.8386 11.0267 28.7453 10.84ZM52.2397 11.28V12.12C51.733 12.28 51.253 12.6133 50.7997 13.12C50.3464 13.6267 49.893 14.5067 49.4397 15.76L43.7997 32.04C43.2664 31.9867 42.733 31.96 42.1997 31.96C41.6664 31.96 41.1197 31.9867 40.5597 32.04L33.5197 14.36C33.1197 13.3467 32.7064 12.72 32.2797 12.48C31.853 12.24 31.493 12.12 31.1997 12.12V11.28C32.1597 11.3333 33.1597 11.3867 34.1997 11.44C35.2397 11.4667 36.373 11.48 37.5997 11.48C38.4264 11.48 39.293 11.4667 40.1997 11.44C41.133 11.3867 41.9997 11.3333 42.7997 11.28V12.12C42.293 12.12 41.8264 12.1467 41.3997 12.2C40.9997 12.2533 40.7064 12.4 40.5197 12.64C40.3597 12.88 40.373 13.32 40.5597 13.96L45.1197 26.4L44.6797 27.08L47.3597 19.36C48.1864 16.9333 48.3197 15.1467 47.7597 14C47.2264 12.8267 46.3464 12.2 45.1197 12.12V11.28C45.7064 11.3333 46.3997 11.3733 47.1997 11.4C47.9997 11.4267 48.653 11.44 49.1597 11.44C49.6664 11.44 50.2264 11.4267 50.8397 11.4C51.453 11.3733 51.9197 11.3333 52.2397 11.28ZM62.9625 10.72C65.3092 10.72 67.1492 11.4133 68.4825 12.8C69.8158 14.1867 70.4825 16.4667 70.4825 19.64H57.6425L57.6025 18.88H65.0425C65.0958 17.5733 65.0425 16.3733 64.8825 15.28C64.7225 14.16 64.4558 13.2667 64.0825 12.6C63.7358 11.9333 63.2692 11.6 62.6825 11.6C61.8825 11.6 61.2025 12.1733 60.6425 13.32C60.0825 14.4667 59.7358 16.4133 59.6025 19.16L59.7625 19.44C59.7092 19.7333 59.6825 20.04 59.6825 20.36C59.6825 20.6533 59.6825 20.9733 59.6825 21.32C59.6825 23.16 59.9225 24.6267 60.4025 25.72C60.9092 26.8133 61.5358 27.5867 62.2825 28.04C63.0292 28.4933 63.8025 28.72 64.6025 28.72C65.2692 28.72 66.0558 28.56 66.9625 28.24C67.8958 27.8933 68.7892 27.08 69.6425 25.8L70.3225 26.04C70.0292 27.08 69.5225 28.1067 68.8025 29.12C68.1092 30.1067 67.2158 30.9333 66.1225 31.6C65.0292 32.24 63.7092 32.56 62.1625 32.56C60.4025 32.56 58.8292 32.2 57.4425 31.48C56.0558 30.7333 54.9492 29.5733 54.1225 28C53.3225 26.4 52.9225 24.32 52.9225 21.76C52.9225 19.2267 53.3625 17.1467 54.2425 15.52C55.1225 13.8933 56.3225 12.6933 57.8425 11.92C59.3625 11.12 61.0692 10.72 62.9625 10.72ZM86.4863 10.72C87.3929 10.72 88.1129 10.92 88.6463 11.32C89.1796 11.6933 89.5663 12.1867 89.8063 12.8C90.0463 13.3867 90.1663 13.9733 90.1663 14.56C90.1663 15.6533 89.8463 16.5333 89.2063 17.2C88.5929 17.8667 87.7796 18.2 86.7663 18.2C85.6996 18.2 84.8863 17.96 84.3263 17.48C83.7663 16.9733 83.4863 16.3067 83.4863 15.48C83.4863 14.6533 83.6596 13.9733 84.0063 13.44C84.3796 12.9067 84.8329 12.4533 85.3663 12.08C84.9663 12.0267 84.5796 12.08 84.2063 12.24C83.6196 12.3733 83.0996 12.68 82.6463 13.16C82.1929 13.6133 81.8329 14.1467 81.5663 14.76C81.3263 15.3467 81.2063 15.96 81.2063 16.6V27.88C81.2063 29.16 81.4863 30.0267 82.0463 30.48C82.6329 30.9333 83.5529 31.16 84.8063 31.16V32C84.1929 31.9733 83.2863 31.9467 82.0863 31.92C80.8863 31.8667 79.6463 31.84 78.3663 31.84C77.2196 31.84 76.0596 31.8667 74.8863 31.92C73.7396 31.9467 72.8863 31.9733 72.3263 32V31.16C73.2063 31.16 73.8196 30.96 74.1663 30.56C74.5396 30.16 74.7263 29.4 74.7263 28.28V15.64C74.7263 14.44 74.5529 13.56 74.2063 13C73.8596 12.4133 73.2329 12.12 72.3263 12.12V11.28C73.1796 11.36 74.0063 11.4 74.8063 11.4C76.0063 11.4 77.1396 11.36 78.2063 11.28C79.2996 11.1733 80.2996 11.0267 81.2063 10.84V14.12C81.5263 13.4267 81.9396 12.8267 82.4463 12.32C82.9796 11.8133 83.5796 11.4267 84.2463 11.16C84.9396 10.8667 85.6863 10.72 86.4863 10.72ZM104.81 10.72C106.837 10.72 108.517 11.56 109.85 13.24C111.21 14.8933 111.89 17.4533 111.89 20.92C111.89 23.8 111.464 26.1067 110.61 27.84C109.784 29.5467 108.664 30.76 107.25 31.48C105.864 32.2 104.33 32.56 102.65 32.56C101.664 32.56 100.744 32.44 99.8903 32.2C99.0636 31.96 98.3036 31.52 97.6103 30.88L98.1303 30.48C98.557 30.9067 99.037 31.2267 99.5703 31.44C100.104 31.6267 100.624 31.72 101.13 31.72C102.49 31.72 103.49 30.8933 104.13 29.24C104.797 27.56 105.13 25.0267 105.13 21.64C105.13 19.32 104.997 17.5067 104.73 16.2C104.49 14.8933 104.13 13.9733 103.65 13.44C103.197 12.88 102.65 12.6 102.01 12.6C101.184 12.6 100.424 12.9333 99.7303 13.6C99.0636 14.24 98.7036 15.12 98.6503 16.24L98.5703 14.56C99.1036 13.28 99.917 12.32 101.01 11.68C102.104 11.04 103.37 10.72 104.81 10.72ZM98.6903 0.719997V31.64C97.917 31.4 97.1303 31.3067 96.3303 31.36C95.5303 31.3867 94.797 31.52 94.1303 31.76C93.4636 31.9733 92.9303 32.2667 92.5303 32.64L91.9303 32.28C92.0636 31.9067 92.1436 31.5333 92.1703 31.16C92.197 30.7867 92.2103 30.4133 92.2103 30.04V5.52C92.2103 4.32 92.037 3.44 91.6903 2.88C91.3703 2.29333 90.7436 2 89.8103 2V1.16C90.6636 1.24 91.4903 1.28 92.2903 1.28C93.517 1.28 94.6636 1.24 95.7303 1.16C96.797 1.05333 97.7836 0.906665 98.6903 0.719997ZM124.681 10.72C126.681 10.72 128.428 11.08 129.921 11.8C131.441 12.4933 132.615 13.64 133.441 15.24C134.295 16.84 134.721 18.9733 134.721 21.64C134.721 24.3067 134.295 26.44 133.441 28.04C132.615 29.64 131.441 30.8 129.921 31.52C128.428 32.2133 126.681 32.56 124.681 32.56C122.708 32.56 120.961 32.2133 119.441 31.52C117.948 30.8 116.775 29.64 115.921 28.04C115.068 26.44 114.641 24.3067 114.641 21.64C114.641 18.9733 115.068 16.84 115.921 15.24C116.775 13.64 117.948 12.4933 119.441 11.8C120.961 11.08 122.708 10.72 124.681 10.72ZM124.681 11.52C123.748 11.52 122.961 12.32 122.321 13.92C121.708 15.4933 121.401 18.0667 121.401 21.64C121.401 25.2133 121.708 27.8 122.321 29.4C122.961 30.9733 123.748 31.76 124.681 31.76C125.641 31.76 126.428 30.9733 127.041 29.4C127.655 27.8 127.961 25.2133 127.961 21.64C127.961 18.0667 127.655 15.4933 127.041 13.92C126.428 12.32 125.641 11.52 124.681 11.52ZM147.494 10.72C149.494 10.72 151.24 11.08 152.734 11.8C154.254 12.4933 155.427 13.64 156.254 15.24C157.107 16.84 157.534 18.9733 157.534 21.64C157.534 24.3067 157.107 26.44 156.254 28.04C155.427 29.64 154.254 30.8 152.734 31.52C151.24 32.2133 149.494 32.56 147.494 32.56C145.52 32.56 143.774 32.2133 142.254 31.52C140.76 30.8 139.587 29.64 138.734 28.04C137.88 26.44 137.454 24.3067 137.454 21.64C137.454 18.9733 137.88 16.84 138.734 15.24C139.587 13.64 140.76 12.4933 142.254 11.8C143.774 11.08 145.52 10.72 147.494 10.72ZM147.494 11.52C146.56 11.52 145.774 12.32 145.134 13.92C144.52 15.4933 144.214 18.0667 144.214 21.64C144.214 25.2133 144.52 27.8 145.134 29.4C145.774 30.9733 146.56 31.76 147.494 31.76C148.454 31.76 149.24 30.9733 149.854 29.4C150.467 27.8 150.774 25.2133 150.774 21.64C150.774 18.0667 150.467 15.4933 149.854 13.92C149.24 12.32 148.454 11.52 147.494 11.52ZM168.116 0.719997V28.28C168.116 29.4 168.289 30.16 168.636 30.56C168.982 30.96 169.582 31.16 170.436 31.16V32C169.929 31.9733 169.169 31.9467 168.156 31.92C167.142 31.8667 166.102 31.84 165.036 31.84C163.942 31.84 162.836 31.8667 161.716 31.92C160.622 31.9467 159.796 31.9733 159.236 32V31.16C160.116 31.16 160.729 30.96 161.076 30.56C161.449 30.16 161.636 29.4 161.636 28.28V5.52C161.636 4.32 161.462 3.44 161.116 2.88C160.796 2.29333 160.169 2 159.236 2V1.16C160.089 1.24 160.916 1.28 161.716 1.28C162.942 1.28 164.089 1.24 165.156 1.16C166.222 1.05333 167.209 0.906665 168.116 0.719997ZM181.316 11.28V12.08C180.409 12.2933 179.502 12.7067 178.596 13.32C177.689 13.9067 176.769 14.6667 175.836 15.6L173.596 17.88L173.916 17.24L180.556 29.08C180.822 29.5333 181.089 29.9467 181.356 30.32C181.649 30.6933 181.996 30.9733 182.396 31.16V32C181.996 31.9733 181.356 31.9467 180.476 31.92C179.622 31.8667 178.756 31.84 177.876 31.84C176.862 31.84 175.836 31.8667 174.796 31.92C173.782 31.9467 173.009 31.9733 172.476 32V31.16C173.009 31.16 173.369 31.04 173.556 30.8C173.742 30.56 173.716 30.2267 173.476 29.8L169.756 22.52C169.516 22.0667 169.249 21.7733 168.956 21.64C168.689 21.5067 168.356 21.44 167.956 21.44V20.68C168.409 20.6533 168.809 20.5867 169.156 20.48C169.529 20.3733 169.876 20.1733 170.196 19.88L173.236 16.96C174.169 16.08 174.636 15.2933 174.636 14.6C174.662 13.88 174.369 13.2933 173.756 12.84C173.169 12.3867 172.409 12.1333 171.476 12.08V11.28C172.222 11.3067 173.036 11.3333 173.916 11.36C174.822 11.3867 175.596 11.4 176.236 11.4C176.769 11.4 177.356 11.4 177.996 11.4C178.662 11.3733 179.289 11.36 179.876 11.36C180.489 11.3333 180.969 11.3067 181.316 11.28ZM191.423 10.72C192.596 10.72 193.609 10.8533 194.463 11.12C195.316 11.3867 195.943 11.64 196.343 11.88C197.276 12.4667 197.836 12.0933 198.023 10.76H198.863C198.809 11.5333 198.769 12.4667 198.743 13.56C198.716 14.6267 198.703 16.0667 198.703 17.88H197.863C197.756 16.8933 197.516 15.92 197.143 14.96C196.796 14 196.276 13.2133 195.583 12.6C194.889 11.96 193.983 11.64 192.863 11.64C192.143 11.64 191.529 11.8533 191.023 12.28C190.543 12.7067 190.303 13.2933 190.303 14.04C190.303 14.84 190.543 15.5467 191.023 16.16C191.503 16.7733 192.116 17.36 192.863 17.92C193.636 18.48 194.409 19.08 195.183 19.72C196.463 20.7067 197.543 21.6933 198.423 22.68C199.303 23.6667 199.743 24.9467 199.743 26.52C199.743 27.72 199.383 28.7733 198.663 29.68C197.943 30.5867 196.996 31.2933 195.823 31.8C194.649 32.3067 193.343 32.56 191.903 32.56C191.023 32.56 190.249 32.4667 189.583 32.28C188.943 32.12 188.409 31.9067 187.983 31.64C187.583 31.4533 187.223 31.2933 186.903 31.16C186.609 31.0267 186.316 30.9333 186.023 30.88C185.756 30.8533 185.529 30.9733 185.343 31.24C185.156 31.5067 185.009 31.8533 184.903 32.28H184.063C184.116 31.4267 184.156 30.3867 184.183 29.16C184.209 27.9333 184.223 26.3067 184.223 24.28H185.063C185.223 25.72 185.516 26.9867 185.943 28.08C186.396 29.1733 186.996 30.04 187.743 30.68C188.489 31.2933 189.369 31.6 190.383 31.6C191.049 31.6 191.649 31.4 192.183 31C192.716 30.6 192.983 29.96 192.983 29.08C192.983 27.9067 192.609 26.9333 191.863 26.16C191.116 25.36 190.196 24.4933 189.103 23.56C188.249 22.84 187.449 22.1333 186.703 21.44C185.983 20.7467 185.383 19.9867 184.903 19.16C184.449 18.3333 184.223 17.4 184.223 16.36C184.223 15.16 184.556 14.1467 185.223 13.32C185.916 12.4667 186.809 11.8267 187.903 11.4C188.996 10.9467 190.169 10.72 191.423 10.72ZM206.575 26.04C207.721 26.04 208.615 26.32 209.255 26.88C209.921 27.44 210.255 28.24 210.255 29.28C210.255 30.3467 209.921 31.16 209.255 31.72C208.615 32.28 207.721 32.56 206.575 32.56C205.401 32.56 204.495 32.28 203.855 31.72C203.215 31.16 202.895 30.3467 202.895 29.28C202.895 28.24 203.215 27.44 203.855 26.88C204.495 26.32 205.401 26.04 206.575 26.04Z" fill="black"/>
</svg>
